PathFileType	4	(x/y/z)	S09_PSF_T07
DataRate	CameraRate	NumFrames	NumMarkers	Units	OrigDataRate	OrigDataStartFrame	OrigNumFrames
240	240	7	51	mm	240	58	456
Frame#	Time	Sternum			R.Acromium			L.Acromium			Top.Head			R.ASIS			L.ASIS			R.PSIS			L.PSIS			R.Great.Tro			L.Great.Tro			R.Iliac.Crest			L.Iliac.Crest			V.Sacral			R.Thigh.Upper.Post			R.Thigh.Lower.Ant			R.Thigh.Lower.Post			R.Thigh.Upper.Ant			R.Knee.Lat			R.Knee.Med			R.Shank.Upper.Post			R.Shank.Lower.Ant			R.Shank.Lower.Post			R.Shank.Upper.Ant			R.Ankle.Lat			R.Ankle.Med			R.Heel.Upper			R.Heel.Med			R.Heel.Lat			R.Toe.Lat			R.Toe.Med			R.Toe.Tip			L.Thigh.Upper.Post			L.Thigh.Lower.Ant			L.Thigh.Lower.Post			L.Thigh.Upper.Ant			L.Knee.Lat			L.Knee.Med			L.Shank.Upper.Post			L.Shank.Lower.Ant			L.Shank.Lower.Post			L.Shank.Upper.Ant			L.Ankle.Lat			L.Ankle.Med			L.Heel.Upper			L.Heel.Med			L.Heel.Lat			L.Toe.Lat			L.Toe.Med			L.Toe.Tip			Cervical.Spine			Back			
		X1	Y1	Z1	X2	Y2	Z2	X3	Y3	Z3	X4	Y4	Z4	X5	Y5	Z5	X6	Y6	Z6	X7	Y7	Z7	X8	Y8	Z8	X9	Y9	Z9	X10	Y10	Z10	X11	Y11	Z11	X12	Y12	Z12	X13	Y13	Z13	X14	Y14	Z14	X15	Y15	Z15	X16	Y16	Z16	X17	Y17	Z17	X18	Y18	Z18	X19	Y19	Z19	X20	Y20	Z20	X21	Y21	Z21	X22	Y22	Z22	X23	Y23	Z23	X24	Y24	Z24	X25	Y25	Z25	X26	Y26	Z26	X27	Y27	Z27	X28	Y28	Z28	X29	Y29	Z29	X30	Y30	Z30	X31	Y31	Z31	X32	Y32	Z32	X33	Y33	Z33	X34	Y34	Z34	X35	Y35	Z35	X36	Y36	Z36	X37	Y37	Z37	X38	Y38	Z38	X39	Y39	Z39	X40	Y40	Z40	X41	Y41	Z41	X42	Y42	Z42	X43	Y43	Z43	X44	Y44	Z44	X45	Y45	Z45	X46	Y46	Z46	X47	Y47	Z47	X48	Y48	Z48	X49	Y49	Z49	X50	Y50	Z50	X51	Y51	Z51	

58	0.2375	NaN	NaN	NaN	-1374.7	1419.4	513.61	-1373.6	1413.3	198.61	-1336.2	1723.1	353.78	NaN	NaN	NaN	-1248.4	1015.3	230.92	-1485.5	1023.5	389.25	-1472.8	1032.2	300.07	-1351.9	901.93	540.95	-1307.2	927.71	158.32	-1348.4	1071	517.1	-1359.4	1109.2	196.32	-1495.1	992.35	335.67	-1353.4	653.16	528.06	-1272.9	550.63	516.96	-1353.3	560.52	508.59	-1275.9	639.35	531.73	-1306.3	473.07	510.16	-1290.4	457.31	387.7	-1498.1	430.82	504.61	NaN	NaN	NaN	-1546.4	388.33	491.74	-1433	376.6	513.16	-1687.8	265.16	469.28	-1653.9	245.63	389.03	-1724.2	319.15	411.83	-1740.1	297.8	378.31	-1759.1	304.35	441.09	-1720.8	148.24	496.23	-1676	110.59	400.46	-1649.5	73.552	446.26	-1317.7	655.97	214.12	-1216.6	580.3	228.87	-1283.6	574.64	242.77	-1246	659.71	196.9	NaN	NaN	NaN	-1205	528.19	376.27	-1254.7	368.35	241.63	-1187.8	283.17	261.79	-1251.1	291.78	252.25	NaN	NaN	NaN	-1225.9	100.88	286.17	-1207.3	95.884	378.24	-1294.6	68.109	341.12	-1282	45.412	373.09	-1294.6	39.789	313.56	-1121.7	44.221	256.15	-1083.4	45.542	364.74	-1034.6	66.03	305.08	-1451.2	1462.1	367.02	-1480.7	1188.9	358.27
59	0.24167	NaN	NaN	NaN	-1369.7	1420.5	513.56	-1367.8	1414.5	198.45	-1330.5	1724.2	353.4	NaN	NaN	NaN	-1243.2	1015.9	230.83	-1480.5	1024.8	388.52	-1467.9	1033.5	299.36	-1347	903.27	540.4	-1302.7	928.43	158.09	-1342.6	1071.9	516.44	-1354.4	1110.3	195.95	-1490.1	993.72	334.92	-1344.5	654.64	528.59	-1262.2	553.15	517.51	-1342.7	561.87	509.33	-1266.4	641.8	532.14	-1294.8	475.03	510.9	-1279	459.26	388.14	-1485.1	431.77	505.18	NaN	NaN	NaN	-1534.3	389.48	492.36	-1420.8	378.06	513.59	-1675.1	266.08	469.58	-1641.4	246.63	389.33	-1712.5	319.41	411.83	-1728.2	297.56	378.47	-1747.3	304.54	441.27	-1706.9	149.24	497.36	-1661.8	111.44	401.79	-1635.1	74.581	447.86	-1315.1	656.84	214.03	-1214.6	580.46	228.61	-1281.4	575.25	242.59	-1243.4	660.08	196.68	NaN	NaN	NaN	-1203	528.21	375.95	-1253.8	368.48	241.5	-1187.1	283.08	261.58	-1250.4	291.92	252.13	NaN	NaN	NaN	-1225.9	100.9	286.17	-1207.9	96.272	378.52	-1294.6	68.192	341.16	-1282	45.395	373.05	-1294.6	39.882	313.56	-1121.7	44.163	256.12	-1083.3	45.441	364.73	-1034.5	65.853	305.06	-1445.9	1463.3	366.81	-1475.6	1190.3	357.48
60	0.24583	NaN	NaN	NaN	-1364.7	1421.5	513.5	-1361.9	1415.8	198.3	-1324.7	1725.3	353.03	NaN	NaN	NaN	-1238.1	1016.6	230.75	-1475.6	1026.1	387.82	-1463	1034.9	298.68	-1342.1	904.63	539.88	-1298.2	929.13	157.88	-1336.5	1072.8	515.76	-1349.4	1111.3	195.6	-1485.2	995.09	334.21	-1335.3	656.2	529.13	-1251.6	555.75	518.01	-1332.1	563.33	510.09	-1257	644.32	532.52	-1283.3	477.08	511.59	-1267.7	461.3	388.56	-1471.9	432.63	505.74	NaN	NaN	NaN	-1522.3	390.5	492.94	-1408.7	379.52	513.98	-1662.3	266.75	469.88	-1628.7	247.4	389.6	-1700.8	319.38	411.8	-1716.2	297.01	378.6	-1735.3	304.45	441.42	-1692.8	149.99	498.49	-1647.3	112.07	403.14	-1620.5	75.507	449.48	-1312.5	657.72	213.94	-1212.5	580.62	228.35	-1279.4	575.87	242.4	-1240.9	660.46	196.46	NaN	NaN	NaN	-1201	528.24	375.62	-1252.8	368.61	241.32	-1186.4	282.99	261.37	-1249.6	292.06	251.97	NaN	NaN	NaN	-1225.8	100.92	286.16	-1208.4	96.644	378.78	-1294.6	68.282	341.2	-1282	45.381	373.01	-1294.6	39.982	313.56	-1121.6	44.1	256.08	-1083.3	45.345	364.7	-1034.5	65.679	305.04	-1440.5	1464.6	366.6	-1470.5	1191.6	356.68
61	0.25	NaN	NaN	NaN	-1359.7	1422.5	513.45	-1356	1417.1	198.16	-1319	1726.4	352.67	NaN	NaN	NaN	-1233	1017.3	230.68	-1470.7	1027.4	387.16	-1458.1	1036.3	298.02	-1337.1	905.99	539.39	-1293.7	929.83	157.68	-1330.1	1073.6	515.05	-1344.4	1112.4	195.25	-1480.3	996.47	333.55	-1326.1	657.82	529.7	-1241	558.43	518.43	-1321.6	564.88	510.86	-1247.7	646.92	532.85	-1271.9	479.22	512.24	-1256.4	463.42	388.94	-1458.6	433.41	506.28	NaN	NaN	NaN	-1510.3	391.4	493.49	-1396.5	380.98	514.36	-1649.5	267.19	470.16	-1615.8	247.93	389.86	-1689	319.06	411.76	-1704.1	296.16	378.7	-1723.4	304.08	441.54	-1678.5	150.5	499.61	-1632.6	112.47	404.51	-1605.6	76.317	451.13	-1310	658.61	213.87	-1210.6	580.78	228.09	-1277.3	576.49	242.22	-1238.4	660.85	196.24	NaN	NaN	NaN	-1198.9	528.29	375.28	-1251.9	368.74	241.11	-1185.8	282.91	261.16	-1248.9	292.2	251.79	NaN	NaN	NaN	-1225.7	100.94	286.15	-1208.9	96.994	379.01	-1294.6	68.378	341.24	-1282	45.373	372.96	-1294.5	40.091	313.56	-1121.6	44.033	256.04	-1083.2	45.255	364.67	-1034.5	65.507	305.01	-1435.2	1465.9	366.41	-1465.5	1193	355.88
62	0.25417	NaN	NaN	NaN	-1354.6	1423.5	513.4	-1350.2	1418.3	198.03	-1313.2	1727.4	352.32	NaN	NaN	NaN	-1227.9	1017.9	230.61	-1465.8	1028.7	386.53	-1453.3	1037.6	297.4	-1332.2	907.35	538.93	-1289.3	930.51	157.48	-1323.6	1074.3	514.33	-1339.3	1113.4	194.9	-1475.4	997.85	332.93	-1316.7	659.5	530.28	-1230.4	561.19	518.79	-1311.1	566.52	511.63	-1238.4	649.57	533.15	-1260.5	481.45	512.83	-1245.1	465.61	389.3	-1445.3	434.13	506.8	NaN	NaN	NaN	-1498.2	392.17	494	-1384.4	382.43	514.72	-1636.7	267.4	470.45	-1602.8	248.24	390.11	-1677.1	318.45	411.71	-1691.9	295.02	378.78	-1711.3	303.45	441.64	-1664	150.77	500.73	-1617.8	112.66	405.89	-1590.4	76.998	452.78	-1307.5	659.51	213.81	-1208.6	580.95	227.82	-1275.3	577.11	242.03	-1235.9	661.24	196.02	NaN	NaN	NaN	-1196.9	528.35	374.93	-1250.9	368.88	240.86	-1185.1	282.84	260.96	-1248.2	292.35	251.59	NaN	NaN	NaN	-1225.7	100.97	286.14	-1209.3	97.319	379.22	-1294.6	68.481	341.28	-1282	45.372	372.92	-1294.5	40.208	313.55	-1121.6	43.962	256	-1083.2	45.169	364.64	-1034.4	65.338	304.97	-1429.8	1467.1	366.23	-1460.4	1194.3	355.07
63	0.25833	NaN	NaN	NaN	-1349.6	1424.5	513.34	-1344.3	1419.6	197.91	-1307.4	1728.5	351.99	NaN	NaN	NaN	-1222.9	1018.6	230.53	-1460.9	1030	385.95	-1448.5	1039	296.81	-1327.3	908.72	538.5	-1284.9	931.17	157.29	-1316.8	1075	513.59	-1334.3	1114.4	194.54	-1470.6	999.22	332.36	-1307.2	661.23	530.87	-1219.9	564.02	519.09	-1300.6	568.23	512.42	-1229.2	652.28	533.4	-1249.2	483.74	513.37	-1233.9	467.87	389.64	-1432	434.78	507.29	NaN	NaN	NaN	-1486.2	392.8	494.48	-1372.4	383.86	515.07	-1623.8	267.4	470.73	-1589.7	248.32	390.35	-1665.1	317.57	411.65	-1679.5	293.6	378.85	-1699.1	302.55	441.73	-1649.4	150.8	501.85	-1602.7	112.63	407.28	-1574.9	77.539	454.43	-1305	660.4	213.75	-1206.7	581.11	227.56	-1273.3	577.74	241.85	-1233.4	661.63	195.8	NaN	NaN	NaN	-1195	528.43	374.58	-1249.9	369.02	240.6	-1184.4	282.78	260.76	-1247.4	292.51	251.38	NaN	NaN	NaN	-1225.6	100.99	286.12	-1209.6	97.615	379.4	-1294.6	68.591	341.32	-1281.9	45.381	372.89	-1294.5	40.333	313.54	-1121.6	43.889	255.95	-1083.2	45.086	364.6	-1034.4	65.17	304.93	-1424.5	1468.4	366.05	-1455.4	1195.7	354.27
64	0.2625	NaN	NaN	NaN	-1344.5	1425.5	513.29	-1338.4	1420.8	197.79	-1301.6	1729.5	351.67	-1233	1002.3	475.95	-1217.9	1019.3	230.43	-1456	1031.3	385.41	-1443.7	1040.3	296.26	-1322.3	910.09	538.09	-1280.5	931.83	157.11	-1309.8	1075.5	512.86	-1329.2	1115.4	194.18	-1465.8	1000.6	331.85	-1297.6	663.02	531.48	-1209.4	566.91	519.32	-1290.1	570.02	513.2	-1220	655.04	533.62	-1237.9	486.11	513.86	-1222.7	470.2	389.94	-1418.8	435.38	507.76	NaN	NaN	NaN	-1474.2	393.31	494.93	-1360.4	385.27	515.41	-1610.9	267.2	471.02	-1576.5	248.17	390.59	-1653	316.41	411.6	-1667.1	291.9	378.93	-1686.9	301.39	441.8	-1634.7	150.59	502.96	-1587.4	112.39	408.67	-1559.3	77.933	456.08	-1302.5	661.3	213.71	-1204.8	581.27	227.3	-1271.4	578.38	241.67	-1231	662.02	195.58	NaN	NaN	NaN	-1193.1	528.51	374.23	-1248.9	369.17	240.31	-1183.7	282.73	260.57	-1246.7	292.66	251.15	NaN	NaN	NaN	-1225.5	101.02	286.1	-1209.8	97.884	379.55	-1294.5	68.709	341.35	-1281.9	45.399	372.86	-1294.4	40.467	313.53	-1121.6	43.816	255.91	-1083.1	45.006	364.55	-1034.3	65.003	304.89	-1419.2	1469.6	365.87	-1450.4	1197	353.48
